<svg xmlns="http://www.w3.org/2000/svg" width="200" height="200" viewBox="0 0 200 200" fill="none" stroke-width="20">
  <style>
    
    .color {
      stroke: #424242;
    }
    
    @media (prefers-color-scheme: dark) {
      .color {
        stroke: #d1d1d1;
      }
    }
    
  </style>
  <path class="color" d="M32.0813 96.5972C32.1559 96.1221 32.1671 95.66 32.1075 95.1828C26.5555 50.7619 6.48271 -10.1747 74.1271 55.1664C75.246 56.2473 76.8731 56.8181 78.413 56.5967C98.9031 53.6516 100.965 53.6509 120.4 57.2432C122.224 57.5803 124.093 56.8953 125.283 55.4722C136.793 41.701 195.675 -24.576 167.399 96.518C167.243 97.1889 167.208 97.9118 167.309 98.5933C168.365 105.711 173.328 148.734 141.942 165.151C141.729 165.263 141.526 165.386 141.328 165.522C129.491 173.697 97.6543 181.261 60.4624 167.014C30.9354 153.64 29.1961 114.961 32.0813 96.5972Z"/>
</svg>
